HIERARCHY
ROOT Hips
{
	OFFSET 0.000000 0.000000 0.000000
	CHANNELS 6 Xposition Yposition Zposition Zrotation Yrotation Xrotation 
	JOINT LeftUpLeg_virtual
	{
		OFFSET 0.000000 0.000000 0.000000
		CHANNELS 3 Zrotation Yrotation Xrotation
		JOINT LeftUpLeg
		{
			OFFSET 8.479694 -4.795517 -0.379053
			CHANNELS 3 Zrotation Yrotation Xrotation
			JOINT LeftLeg
			{
				OFFSET 0.485052 -32.551468 0.112863
				CHANNELS 3 Zrotation Yrotation Xrotation
				JOINT LeftFoot
				{
					OFFSET 0.438033 -32.635670 -3.012641
					CHANNELS 3 Zrotation Yrotation Xrotation
					JOINT LeftToeBase
					{
						OFFSET 0.970169 -13.225353 11.864223
						CHANNELS 3 Zrotation Yrotation Xrotation
						End Site
						{
							OFFSET 0.000000 0.000000 0.000000
						}
					}
				}
			}
		}
	}
	JOINT RightUpLeg_virtual
	{
		OFFSET 0.000000 0.000000 0.000000
		CHANNELS 3 Zrotation Yrotation Xrotation
		JOINT RightUpLeg
		{
			OFFSET -8.479694 -4.795517 -0.379053
			CHANNELS 3 Zrotation Yrotation Xrotation
			JOINT RightLeg
			{
				OFFSET -0.484100 -32.551483 0.112903
				CHANNELS 3 Zrotation Yrotation Xrotation
				JOINT RightFoot
				{
					OFFSET -0.438985 -32.635651 -3.012681
					CHANNELS 3 Zrotation Yrotation Xrotation
					JOINT RightToeBase
					{
						OFFSET -0.970169 -13.225354 11.864223
						CHANNELS 3 Zrotation Yrotation Xrotation
						End Site
						{
							OFFSET 0.000000 0.000000 0.000000
						}
					}
				}
			}
		}
	}
	JOINT Spine_virtual
	{
		OFFSET 0.000000 0.000000 0.000000
		CHANNELS 3 Zrotation Yrotation Xrotation
		JOINT Spine
		{
			OFFSET 0.000000 7.722015 1.166203
			CHANNELS 3 Zrotation Yrotation Xrotation
			JOINT Spine1
			{
				OFFSET 0.000000 12.024086 0.248766
				CHANNELS 3 Zrotation Yrotation Xrotation
				JOINT Spine2
				{
					OFFSET -0.000000 11.503036 -0.491240
					CHANNELS 3 Zrotation Yrotation Xrotation
					JOINT Neck_virtual
					{
						OFFSET 0.000000 0.000000 0.000000
						CHANNELS 3 Zrotation Yrotation Xrotation
						JOINT Neck
						{
							OFFSET 0.000000 18.430687 -3.123054
							CHANNELS 3 Zrotation Yrotation Xrotation
							JOINT Head
							{
								OFFSET -0.000000 9.051071 1.034021
								CHANNELS 3 Zrotation Yrotation Xrotation
								End Site
								{
									OFFSET 0.000000 0.000000 0.000000
								}
							}
						}
					}
					JOINT LeftShoulder_virtual
					{
						OFFSET 0.000000 0.000000 0.000000
						CHANNELS 3 Zrotation Yrotation Xrotation
						JOINT LeftShoulder
						{
							OFFSET 6.197824 13.665230 -4.064723
							CHANNELS 3 Zrotation Yrotation Xrotation
							JOINT LeftArm
							{
								OFFSET 7.778132 -0.187073 -1.709282
								CHANNELS 3 Zrotation Yrotation Xrotation
								JOINT LeftForeArm
								{
									OFFSET 21.954697 0.000000 -2.041093
									CHANNELS 3 Zrotation Yrotation Xrotation
									JOINT LeftHand
									{
										OFFSET 22.992908 0.000000 -0.870901
										CHANNELS 3 Zrotation Yrotation Xrotation
										End Site
										{
											OFFSET 0.000000 0.000000 0.000000
										}
									}
								}
							}
						}
					}
					JOINT RightShoulder_virtual
					{
						OFFSET 0.000000 0.000000 0.000000
						CHANNELS 3 Zrotation Yrotation Xrotation
						JOINT RightShoulder
						{
							OFFSET -6.197824 13.665230 -4.064723
							CHANNELS 3 Zrotation Yrotation Xrotation
							JOINT RightArm
							{
								OFFSET -7.778132 -0.187073 -1.709282
								CHANNELS 3 Zrotation Yrotation Xrotation
								JOINT RightForeArm
								{
									OFFSET -21.954697 0.000000 -2.041093
									CHANNELS 3 Zrotation Yrotation Xrotation
									JOINT RightHand
									{
										OFFSET -22.992908 0.000000 -0.870901
										CHANNELS 3 Zrotation Yrotation Xrotation
										End Site
										{
											OFFSET 0.000000 0.000000 0.000000
										}
									}
								}
							}
						}
					}
				}
			}
		}
	}
}
MOTION
Frames: 10
Frame Time: 0.033333
-33.324680 68.203285 7.278822 179.924791 9.175268 179.997095 0.417229 -6.418009 20.286425 5.711800 6.552300 16.233654 5.086875 -4.585253 49.864814 -6.563236 -9.121754 -10.871214 0.000000 0.000000 0.000000 2.678343 -3.839868 23.179615 -2.663811 -1.659186 -18.823617 -2.173491 5.089576 42.751452 10.664118 3.906684 -3.660487 0.000000 0.000000 0.000000 7.158541 -1.914484 0.569570 5.080037 5.133991 -13.349663 0.329008 -2.757222 10.453961 0.002117 0.024535 0.010807 0.116335 -1.248977 12.318589 11.625195 -2.178736 7.120859 0.000000 0.000000 0.000000 2.311779 -0.771735 7.544056 -0.878307 -10.191187 -1.514415 -71.425023 -29.262310 21.151515 -86.440374 -86.823985 131.738257 0.000000 0.000000 0.000000 -3.669263 1.420178 6.164019 21.507685 6.746085 3.297994 57.052201 13.807201 31.651865 -175.626580 56.511360 178.308550 0.000000 0.000000 0.000000 
-33.293140 68.193596 7.257430 -179.993776 9.416699 179.993175 0.382717 -6.256453 20.307633 5.628381 6.420624 16.263439 5.056300 -4.634939 49.859264 -6.508181 -9.103666 -10.833372 0.000000 0.000000 0.000000 2.746982 -3.732548 23.117045 -2.703391 -1.617975 -18.804334 -2.139845 5.094217 42.903068 10.675003 3.905632 -3.629047 0.000000 0.000000 0.000000 7.174584 -1.846106 0.544390 5.151862 5.239637 -13.260496 0.362604 -2.738742 10.527645 -0.002099 0.075750 -0.005148 0.076592 -1.327770 12.406683 11.574922 -2.084153 7.260714 0.000000 0.000000 0.000000 2.290732 -0.796580 7.590124 -1.038681 -10.175454 -1.377691 -71.248456 -29.585258 21.220302 -84.813116 -86.715501 130.218322 0.000000 0.000000 0.000000 -3.693893 1.464613 6.258974 21.805826 6.666408 3.223985 56.911909 13.790892 30.905032 -175.650677 56.552515 178.233213 0.000000 0.000000 0.000000 
-33.243774 68.191139 7.256975 179.930556 9.477500 -179.994022 0.307952 -6.228095 20.235605 5.520339 6.291849 16.309691 5.079705 -4.670220 49.841823 -6.429610 -9.062124 -10.808307 0.000000 0.000000 0.000000 2.730906 -3.816393 22.867192 -2.796737 -1.646385 -18.614487 -2.108396 5.067292 42.930539 10.691747 3.882713 -3.549100 0.000000 0.000000 0.000000 7.112241 -1.731154 0.444775 5.110658 5.163093 -13.209415 0.351957 -2.742588 10.573589 -0.020449 0.078418 -0.017029 0.127483 -1.266685 12.481831 11.517853 -2.183012 7.387493 0.000000 0.000000 0.000000 2.350435 -0.767047 7.675322 -1.231741 -10.197104 -1.287010 -70.949355 -30.185884 21.195525 -85.306945 -86.624953 130.838858 0.000000 0.000000 0.000000 -3.616543 1.458824 6.315222 22.266642 6.371331 3.198922 56.707509 14.193328 29.153423 -175.532542 56.464078 178.255916 0.000000 0.000000 0.000000 
-33.189861 68.193626 7.263389 179.961373 9.550406 -179.962903 0.321733 -6.161838 20.181638 5.481869 6.200047 16.386544 5.086403 -4.695229 49.785963 -6.349591 -9.041486 -10.794174 0.000000 0.000000 0.000000 2.779920 -3.786752 22.893812 -2.804564 -1.655834 -18.694842 -2.095258 5.012626 42.971374 10.722211 3.843998 -3.562666 0.000000 0.000000 0.000000 7.144517 -1.579747 0.400286 5.084818 5.191900 -13.182038 0.351219 -2.726091 10.621584 -0.030283 0.014234 -0.013048 0.133463 -1.272007 12.525211 11.491102 -2.229367 7.536934 0.000000 0.000000 0.000000 2.358794 -0.863474 7.686089 -1.396779 -10.291637 -1.145587 -70.429366 -30.838222 21.190356 -87.778340 -86.554514 133.454971 0.000000 0.000000 0.000000 -3.637979 1.491277 6.282497 22.767165 5.911996 2.998054 56.353937 14.897578 26.655621 -175.229173 56.226947 178.413926 0.000000 0.000000 0.000000 
-33.155418 68.187134 7.261600 179.961660 9.637106 179.947576 0.363194 -6.078958 20.236252 5.450295 6.169851 16.434004 5.069777 -4.724883 49.727592 -6.304041 -9.071703 -10.790435 0.000000 0.000000 0.000000 2.801594 -3.759639 22.977451 -2.822660 -1.623750 -18.669559 -2.100240 5.002390 42.977056 10.752859 3.804717 -3.602832 0.000000 0.000000 0.000000 7.185350 -1.564945 0.479306 5.050651 5.187856 -13.093176 0.353363 -2.798059 10.675060 -0.023377 0.016392 -0.024190 0.125537 -1.140323 12.557855 11.520618 -2.324812 7.688851 0.000000 0.000000 0.000000 2.377176 -0.825439 7.697411 -1.511157 -10.310615 -1.031114 -69.683079 -31.419123 21.034949 -90.777831 -86.327628 136.614780 0.000000 0.000000 0.000000 -3.596871 1.447170 6.349466 23.184717 5.760369 2.920819 55.823689 15.859832 23.724930 -174.909943 55.912256 178.507008 0.000000 0.000000 0.000000 
-33.154827 68.162659 7.263060 -179.991098 9.713797 179.927605 0.475663 -6.015695 20.312293 5.412034 6.205285 16.399593 5.035898 -4.747393 49.744534 -6.264416 -9.131545 -10.835879 0.000000 0.000000 0.000000 2.863881 -3.641680 23.108914 -2.803257 -1.563631 -18.771190 -2.112978 5.000368 43.026708 10.775358 3.760510 -3.716469 0.000000 0.000000 0.000000 7.254186 -1.549991 0.608673 5.079869 5.007896 -13.060315 0.364658 -2.747281 10.718777 -0.008282 0.091126 0.000356 0.069771 -1.285930 12.573086 11.456754 -2.311147 7.937426 0.000000 0.000000 0.000000 2.322918 -0.726146 7.730188 -1.588516 -10.355143 -0.848877 -68.786753 -31.987842 21.139232 -92.133747 -86.183197 138.172145 0.000000 0.000000 0.000000 -3.625874 1.430338 6.334690 23.501595 5.545188 2.740414 55.142245 16.923066 20.856230 -174.767780 55.526549 178.405716 0.000000 0.000000 0.000000 
-33.179226 68.129982 7.255517 179.949748 9.775848 179.916813 0.514139 -5.863043 20.376806 5.408603 6.238461 16.306324 5.054488 -4.791694 49.792571 -6.262020 -9.181463 -10.912351 0.000000 0.000000 0.000000 2.875564 -3.476901 23.224885 -2.820960 -1.532879 -18.900990 -2.133178 5.012102 43.123103 10.774949 3.709232 -3.837117 0.000000 0.000000 0.000000 7.259222 -1.287222 0.708544 5.062979 4.897676 -13.046901 0.337084 -2.797883 10.755018 -0.002995 0.031793 0.010409 0.091510 -1.281190 12.631336 11.567552 -2.249699 8.049583 0.000000 0.000000 0.000000 2.344049 -0.823544 7.762090 -1.633649 -10.470657 -0.704362 -67.875271 -32.373864 21.604551 -90.897114 -86.153862 137.180525 0.000000 0.000000 0.000000 -3.618106 1.360963 6.362229 23.710245 5.509000 2.609821 54.488794 17.750207 18.924391 -174.516784 55.240958 178.406754 0.000000 0.000000 0.000000 
-33.211967 68.106606 7.248932 -179.997519 9.759884 179.998926 0.623324 -5.812768 20.365140 5.400832 6.274736 16.189447 5.072297 -4.832846 49.873785 -6.264584 -9.219063 -10.959193 0.000000 0.000000 0.000000 2.983936 -3.297918 23.300644 -2.790474 -1.472115 -19.069627 -2.152276 4.996534 43.277387 10.745924 3.648929 -3.917537 0.000000 0.000000 0.000000 7.310813 -1.411946 0.734474 5.145326 4.889407 -13.037400 0.359002 -2.776838 10.764822 -0.010503 0.102692 0.012917 0.068012 -1.382220 12.737246 11.627398 -2.339877 8.119179 0.000000 0.000000 0.000000 2.308341 -0.831815 7.839305 -1.622332 -10.540935 -0.589418 -67.096725 -32.793429 22.151999 -87.018338 -86.026745 133.594716 0.000000 0.000000 0.000000 -3.646298 1.320114 6.429077 23.901612 5.657665 2.620077 53.932437 18.469796 17.989327 -174.388089 55.006338 178.288414 0.000000 0.000000 0.000000 
-33.233334 68.101349 7.250404 179.942263 9.806966 -179.965622 0.623899 -5.717448 20.304710 5.370522 6.313017 16.211712 5.147126 -4.876478 49.876565 -6.294149 -9.240696 -10.960987 0.000000 0.000000 0.000000 3.012588 -3.180610 23.130565 -2.839950 -1.412452 -18.990409 -2.165272 5.006309 43.364195 10.695820 3.583316 -3.909403 0.000000 0.000000 0.000000 7.289212 -1.246822 0.668714 5.195677 4.719561 -13.015844 0.343121 -2.823590 10.797651 -0.025461 0.205589 -0.002363 0.103706 -1.327553 12.857197 11.706084 -2.471979 8.148529 0.000000 0.000000 0.000000 2.327061 -0.857019 7.920356 -1.497194 -10.598398 -0.570608 -66.622430 -33.246308 22.966127 -83.189819 -85.891152 130.083070 0.000000 0.000000 0.000000 -3.621437 1.364679 6.506460 24.021273 5.821401 2.601534 53.578627 18.965443 17.990624 -174.393335 54.859355 178.094983 0.000000 0.000000 0.000000 
-33.238747 68.120346 7.249510 179.993434 9.871510 179.961920 0.668891 -5.641448 20.219805 5.397094 6.316328 16.317865 5.170364 -4.892460 49.863096 -6.294560 -9.246145 -10.885350 0.000000 0.000000 0.000000 3.096727 -3.086594 23.235496 -2.843385 -1.327639 -19.057281 -2.175048 5.028930 43.464421 10.691030 3.547661 -3.885140 0.000000 0.000000 0.000000 7.318317 -1.091004 0.593549 5.263304 4.716249 -12.931337 0.354741 -2.810808 10.864060 -0.019621 0.068730 -0.003129 0.064263 -1.329035 12.967835 11.843043 -2.443648 8.145054 0.000000 0.000000 0.000000 2.275940 -0.905604 7.978735 -1.437516 -10.752010 -0.455555 -66.310325 -33.784738 23.837862 -79.502200 -85.986044 126.739460 0.000000 0.000000 0.000000 -3.673353 1.343516 6.580889 24.036409 6.190046 2.646009 53.331521 19.259590 18.563930 -174.389046 54.736323 177.927452 0.000000 0.000000 0.000000 
